# xmcd
#
# Track frame offsets:
#	150
#	23996
#	44658
#	65850
#	87581
#	104426
#	120370
#	137940
#	156475
#	173882
#	190049
#	194472
#	215296
#	236006
#	258575
#
# Disc length: 3743 seconds
#
# Revision: 1
# Processed by: cddbd v1.5.1PL2 Copyright (c) Steve Scherf et al.
# Submitted via: audiograbber 1.83.01
#
DISCID=e50e9d0f
DTITLE=The Mark Cook Project - Blue Voodoo
DYEAR=2005
DGENRE=Blues
TTITLE0=No One Likes a Good Woman (When She's Down)
TTITLE1=Gonna Fly The Coop
TTITLE2=Moonlight Blues
TTITLE3=Doin' What I Do Best
TTITLE4=At The Brew House
TTITLE5=Back Home to Tennessee
TTITLE6=What Was Will Never Be
TTITLE7=Blue Voodoo
TTITLE8=Don't Pull Me Down
TTITLE9=In A Funk
TTITLE10=Sunday Afternoon
TTITLE11=Livin' On The Outside
TTITLE12=Gonna Live For Today
TTITLE13=When You're Feelin' The Blues
TTITLE14=Tomorow's Come and Gone
EXTD=
EXTT0=
EXTT1=
EXTT2=
EXTT3=
EXTT4=
EXTT5=
EXTT6=
EXTT7=
EXTT8=
EXTT9=
EXTT10=
EXTT11=
EXTT12=
EXTT13=
EXTT14=
PLAYORDER=
